<svg id="Layer_1" data-name="Layer 1" xmlns="http://www.w3.org/2000/svg" viewBox="0 0 594.47 253.81"><defs><style>.cls-1{fill:#f4c400;}.cls-2{stroke:#010101;}.cls-2,.cls-3{stroke-miterlimit:10;}.cls-3{fill:#010101;stroke:#1e201d;}</style></defs><path class="cls-1" d="M721.33,229.88a.55.55,0,0,0-.21-.07,9,9,0,0,0-2.32-.65c0,.08.06.12.13.12-1.45.24-2.39,1.45-3.67,2.06-1.45.69-3.06.21-4.59.4-1.69.22-3.36,1.14-5,1.57s-3.17,1.3-4.83,1.89c-1.17.41-3.13.42-3.86-.82-.2-.36.11-.79.07-1.18a5.53,5.53,0,0,0-.74-2.07c-.89-1.59-2.7-2.56-4-3.78a34.09,34.09,0,0,0-4-3.56c-1.59-1.1-3-1.86-4.16-3.49-.9-1.3-1.6-2.73-2.61-4-1.2-1.45-3-2.19-4.18-3.62-.94-1.13-1.06-2.6-1.82-3.8s-2.16-1.62-3.1-2.61c-.57-.59-.43-1.71-.5-2.46-.37-4.44-3.8-6.81-6.12-10.21-.8-1.19-.46-2.44-.68-3.78a5.59,5.59,0,0,0-2.43-3.4,13.75,13.75,0,0,1-3.51-3.42,41.05,41.05,0,0,1-2.69-5.34c1.46-1.07,3.52-1.1,3.67-3.34a14.06,14.06,0,0,0-1.53-6c-1.38-3.17-3.87-3.56-7-4.24-2.4-.52-3.93-1.47-6.32-.27-2.07,1-3.7,1.76-6.07,1.45a53.82,53.82,0,0,1-6.72-1.72,11,11,0,0,1-2.79-.95,7.67,7.67,0,0,0-2.57-1.21c-1-.92-3.54-.33-5.1-.49,0-.14-.24-.91-.25-1a.34.34,0,0,1-.26,0,6.12,6.12,0,0,0-.28-1.37c-2.47-1-6.33-.29-7.63,2.24-.73,1.41.12,3.07-.62,4.41-1.06,1.94-3.33,1.18-5,.64-1.07-1.21-4-1.71-5.2-.9a3.23,3.23,0,0,1-1.49-.45,3.19,3.19,0,0,0-.09-1.31s-.54-.74-.55-.41c0-.2,0-.4,0-.59a4.55,4.55,0,0,0-.83-.46c-.24-.13-.48-.24-.73-.35a11.72,11.72,0,0,1-1.56-.84,11.09,11.09,0,0,1-1.62-.57,14.27,14.27,0,0,0-1.81-.5l-2.07-.5c-1.12-.33-2.23-.72-3.35-1a13.66,13.66,0,0,1-2.52-.55,5,5,0,0,0-.66-.54,1.69,1.69,0,0,1-.57-1.77,3,3,0,0,1,.33-1.27,1.82,1.82,0,0,0,.33-.9c0-.66-.6-1.2-1-1.69a7.49,7.49,0,0,1-.84-1.9,2.77,2.77,0,0,0,.57-2,.14.14,0,0,0,.07.11c-.11-.37-.12-.35-.46-.57a3.36,3.36,0,0,0-3-2c-.45-.42-.17-.28-.89-.36-.52-.47-.68-.42-1.4-.62a1.92,1.92,0,0,0-1.75-.1,1.65,1.65,0,0,0-1.53.26,2.88,2.88,0,0,1-3.27,1.29,7.11,7.11,0,0,0-1.13,0,2.06,2.06,0,0,0-2.31-.73c-1.33-1.05-2,.59-3.25.77-1.75.26-3.39-.95-5.17-.52a.4.4,0,0,1,0-.34c-2.31-.13-7,1.91-8.74,3.37a12.25,12.25,0,0,0-4.13,1,.47.47,0,0,0-.14-.3,11,11,0,0,0-2,.66,2.83,2.83,0,0,0-2.22.47,4.06,4.06,0,0,1-1.51-.15,13,13,0,0,1-2.14-.15c.09-.14-.52-.25-.75-.25,0-.56,0-.41-.46-1.06l.09.11c.12-1.83-2.09-2.31-3.48-1.78-1.19.45-1.45,2.08-2,3.08-1.57,2.79-4.18,3.55-6.91,4.82-2.91,1.37-5.42,3.59-6.26,6.8-.39,1.45-.24,2.93-1,4.28a14.84,14.84,0,0,1-3.27,3.88,12.35,12.35,0,0,1-4.28,2.74,7.61,7.61,0,0,0-4.3,2.73,14.14,14.14,0,0,1-3.37,3.53,18.1,18.1,0,0,0-3.63,2.95c-1,1.24-1.68,2.78-2.63,4.09s-2.11,2.73-3.17,4.1c-1.89,2.43-4.14,5.3-4.28,8.51,2.78.63,1,4,.84,5.83-.11,1.35.12,2.69.1,4a12,12,0,0,1-.76,3.74,31.3,31.3,0,0,1-3.35,7.09c-.73,1.07-1.34,2.06-1,3.39a32.47,32.47,0,0,1,1.07,4,13.5,13.5,0,0,0,3,7.12c1.9,2.17,4.11,4,5.87,6.32s2.41,5.09,3.71,7.7a9.68,9.68,0,0,0,2.79,3.49,21.09,21.09,0,0,1,3.14,2.41c1.34,1.5,2.08,3.4,3.56,4.79a7.71,7.71,0,0,0,4.31,2.17,12.22,12.22,0,0,0,5.14-.83,26.62,26.62,0,0,1,5.58-1.16,24.54,24.54,0,0,1,6.35.13,47.52,47.52,0,0,0,5.42.91c2.28.1,4-1,6.09-1.59a37.65,37.65,0,0,1,5.59-.91,14.7,14.7,0,0,0,5.55-2.07,3.36,3.36,0,0,1,4.1.16c1.19,1.09,2.31,2.3,3.41,3.48s2,2.37,3.41,2.86c2,.72,4.24,0,6.3.57a10,10,0,0,1,3.89,2.56,6.34,6.34,0,0,1,.56.63L603.25,244s-30.52-47.37-65.6-69.24c0,0,93.13,15.91,144.73,121.52-.15-2.5,1.79-5.25,3.08-7.09,2.09-3,4.89-5.26,7.16-8.05,1.25-1.54,2-3.37,3.14-5a41.69,41.69,0,0,1,3.75-3.77c2.88-3,5.15-6.27,8.51-8.83h-.49c2.66-.23,3.25-3.94,3.91-5.93a10.47,10.47,0,0,1,2.19-3.57,10.28,10.28,0,0,0,2.23-5.27c.72-3.76,4.15-6.33,4.83-10.07.41-2.21-.53-6,2-7.16C722.49,230.75,721.87,230.52,721.33,229.88Z" transform="translate(-128.23 -143.58)"/><path d="M591.08,312.13c2,4.5-2.25,7.77-2.63,12.15h-.24a36,36,0,0,0-2.47,7.1,17.7,17.7,0,0,0,1.12,11.43c1.75,3.75,4.93,6.38,7,9.89a13.55,13.55,0,0,1,1.57,6,29.73,29.73,0,0,0,1.27,5.83c.56,2,.4,4,.82,6s1.8,3.89,3,5.67c1.34,2,2.72,4,4.12,6,.81,1.14,1.9,2.06,2.66,3.24.9,1.38.29,2.43-.13,3.84s.45,2.53,1.27,3.51c1.67,2,4.58,4.7,7.39,4.61,4.21-.12,7.78-2.54,12.1-2a7.68,7.68,0,0,0,5.62-1.24,26.16,26.16,0,0,1,4.68-2.47,30.26,30.26,0,0,0,5.23-2.34,17.15,17.15,0,0,0,4-4c1.39-1.72,2.7-3.51,4.09-5.24a34.75,34.75,0,0,0,3.61-4.43c1.05-1.85.59-3.78.9-5.78a7.63,7.63,0,0,1,.3-1.28c-1.51-21-6.35-66.24-20.79-86.86Z" transform="translate(-128.23 -143.58)"/><path d="M719,327.26c-.43-.62-.18-1.42-.14-2.11.16-2.35-.93-5.73-2.85-7.16l-.73.73c-3.93,1.5-1.12,3.35-3.15,5.34-.13-.19-.37-.48-.53-.71-1.54.59-2.21,2.07-3,3.38a12.57,12.57,0,0,1-4.56,4.16c-2.45,1.33-6,1.3-7.49,4.06-.4.76-.18,1-.14,1.82s-.89.79-1.15,1.36a7,7,0,0,0-.12,5.67c1.13,3.56-1.63,5.56-3.29,8.3a3.85,3.85,0,0,0-.26,4c.73,1.63-.33,3.73-.49,5.41a4.43,4.43,0,0,0,2.1,4.46c1.51.88,3.14.16,4.61-.41a8.65,8.65,0,0,1,4.38-.62c1.78.19,2.67-.83,3.28-2.43a20.18,20.18,0,0,1,2.34-5.05,17.56,17.56,0,0,0,3.13-5.43,35.45,35.45,0,0,1,1.37-4.54c.68-1.57,1.49-3.07,2.15-4.64,1.38-3.24,1.53-6.7,1.94-10.14a1.58,1.58,0,0,1,2.54-.47,3.62,3.62,0,0,0,1.21-3.64C719.94,328,719.34,327.76,719,327.26Z" transform="translate(-128.23 -143.58)"/><path class="cls-1" d="M193.73,277.47l-65.5,66.32h26.2l11.46-11.87,27.43.41.41,15.55h18.42V277.47ZM193.32,316h-13.1l13.1-13.51Z" transform="translate(-128.23 -143.58)"/><polygon class="cls-1" points="92.83 204.3 92.83 133.88 113.57 133.88 130.42 161.96 149.86 133.88 168 133.88 168 204.3 149.86 204.3 149.86 164.56 130.42 190.04 112.71 165.42 113.14 204.3 92.83 204.3"/><polygon class="cls-1" points="229.9 134.43 210.39 134.43 192.37 134.43 175.04 134.43 175.04 151.76 192.37 151.76 192.37 203.75 210.39 203.75 210.39 151.76 229.9 151.76 229.9 134.43"/><polygon class="cls-2" points="293.41 134.43 273.89 134.43 255.88 134.43 238.55 134.43 238.55 151.76 255.88 151.76 255.88 203.75 273.89 203.75 273.89 151.76 293.41 151.76 293.41 134.43"/><path class="cls-3" d="M468,278.16l-3.11-.06-31.85.07v69.17H451.7V327.39l23.06-.13a17.66,17.66,0,0,0,2.9-.26c18.17-3.73,17.33-22.64,17.33-22.64C495.87,276.33,470.84,278.1,468,278.16Zm6.77,25.25c-.56,7.23-6.4,7.61-6.4,7.61h-16V294.84h16S475.36,296.17,474.79,303.41Z" transform="translate(-128.23 -143.58)"/><path class="cls-3" d="M545.75,278.1H524.37l-25.22,72.79H518l3.08-12.7h27l4.62,12.7h16.94Zm-18.3,43.31,7.9-23.58,7.12,23.58Z" transform="translate(-128.23 -143.58)"/></svg>